<svg version="1.1" viewBox="0.0 0.0 960.0 720.0" fill="none" stroke="none" stroke-linecap="square" stroke-miterlimit="10" xmlns:xlink="http://www.w3.org/1999/xlink" xmlns="http://www.w3.org/2000/svg"><clipPath id="p.0"><path d="m0 0l960.0 0l0 720.0l-960.0 0l0 -720.0z" clip-rule="nonzero"/></clipPath><g clip-path="url(#p.0)"><path fill="#000000" fill-opacity="0.0" d="m0 0l960.0 0l0 720.0l-960.0 0z" fill-rule="evenodd"/><path fill="#00bf63" d="m195.04199 333.97375l0 0c0 -159.05801 128.94199 -288.0 288.0 -288.0l0 0c76.382324 0 149.63629 30.342766 203.64673 84.35324c54.010498 54.010483 84.35327 127.264404 84.35327 203.64676l0 0c0 159.05801 -128.94202 288.0 -288.0 288.0l0 0c-159.05801 0 -288.0 -128.94199 -288.0 -288.0z" fill-rule="evenodd"/><path fill="#0081cd" d="m261.76642 333.97375l0 0c0 -122.19844 99.06845 -221.25984 221.27557 -221.25984l0 0c58.685913 0 114.96826 23.311234 156.46545 64.80551c41.497253 41.494263 64.81012 97.77257 64.81012 156.45433l0 0c0 122.198425 -99.06842 221.25983 -221.27557 221.25983l0 0c-122.20712 0 -221.27557 -99.0614 -221.27557 -221.25983z" fill-rule="evenodd"/><path fill="#d9d9d9" d="m329.4357 333.97375l0 0c0 -84.83441 68.77188 -153.60631 153.6063 -153.60631l0 0c40.738953 0 79.809265 16.183487 108.61609 44.99025c28.806763 28.806763 44.990234 67.87714 44.990234 108.61606l0 0c0 84.83441 -68.77191 153.6063 -153.60632 153.6063l0 0c-84.83441 0 -153.6063 -68.77188 -153.6063 -153.6063z" fill-rule="evenodd"/><path fill="#ffffff" d="m389.93964 333.97375l0 0c0 -51.419006 41.68335 -93.10237 93.102356 -93.10237l0 0c24.692291 0 48.37323 9.808975 65.83331 27.269058c17.460083 17.460083 27.269043 41.14102 27.269043 65.83331l0 0c0 51.419006 -41.68335 93.102356 -93.102356 93.102356l0 0c-51.419006 0 -93.102356 -41.68335 -93.102356 -93.102356z" fill-rule="evenodd"/></g></svg>